# xmcd
#
# Track frame offsets:
#	150
#	14002
#	29329
#	44580
#	59369
#	75511
#	93037
#	109926
#	123639
#	136404
#	150991
#	167995
#	182972
#	198715
#
# Disc length: 2867 seconds
#
# Revision: 1
# Processed by: cddbd v1.5.2PL0 Copyright (c) Steve Scherf et al.
# Submitted via: audiograbber 1.83.01
#
DISCID=c10b310e
DTITLE=Jannes - Mijn naam is Jannes
DYEAR=1900
DGENRE=
TTITLE0=Jannes - Laat de zon maar schijnen
TTITLE1=Jannes - Zie die ster
TTITLE2=Jannes - Mijn naam is Jannes
TTITLE3=Jannes - Als jij er morgen niet meer bent
TTITLE4=Jannes - He, mooie meid
TTITLE5=Jannes - Kom blijf de hele nacht bij mij
TTITLE6=Jannes - In vuur en vlam
TTITLE7=Jannes - Het lalala-lied
TTITLE8=Jannes - Neem je eigen in de maling
TTITLE9=Jannes - Kom kijk me nog 'ns aan
TTITLE10=Jannes - Laat de boel maar waaien
TTITLE11=Jannes - Zit niet te kniezen
TTITLE12=Jannes - Rosa blanca
TTITLE13=Jannes - Amore mio
EXTD=
EXTT0=
EXTT1=
EXTT2=
EXTT3=
EXTT4=
EXTT5=
EXTT6=
EXTT7=
EXTT8=
EXTT9=
EXTT10=
EXTT11=
EXTT12=
EXTT13=
PLAYORDER=
